<svg height="512" viewBox="0 0 64 64" width="512" xmlns="http://www.w3.org/2000/svg" xmlns:xlink="http://www.w3.org/1999/xlink"><linearGradient id="linear-gradient" gradientUnits="userSpaceOnUse" x1=".167" x2="62.837" y1="63.833" y2="1.163"><stop offset="0" stop-color="#003f8a"/><stop offset=".518" stop-color="#00d7df"/><stop offset="1" stop-color="#006df0"/></linearGradient><linearGradient id="linear-gradient-4" x1="10.167" x2="72.837" xlink:href="#linear-gradient" y1="73.833" y2="11.163"/><linearGradient id="linear-gradient-5" x1="-9.833" x2="52.837" xlink:href="#linear-gradient" y1="53.833" y2="-8.837"/><linearGradient id="linear-gradient-6" x1="-19.833" x2="42.837" xlink:href="#linear-gradient" y1="43.833" y2="-18.837"/><linearGradient id="linear-gradient-8" x1="21.667" x2="84.337" xlink:href="#linear-gradient" y1="85.333" y2="22.663"/><linearGradient id="linear-gradient-9" x1="13.667" x2="76.337" xlink:href="#linear-gradient" y1="77.333" y2="14.663"/><g id="Tic_tac_toe" data-name="Tic tac toe"><g fill="url(#linear-gradient)"><path d="m61 1h-58a2 2 0 0 0 -2 2v58a2 2 0 0 0 2 2h58a2 2 0 0 0 2-2v-58a2 2 0 0 0 -2-2zm-58 22h18v18h-18zm20 0h18v18h-18zm20 0h18v18h-18zm18-20v18h-18v-18zm-20 0v18h-18v-18zm-38 0h18v18h-18zm0 58v-18h18v18zm20 0v-18h18v18zm20 0v-18h18v18z"/><path d="m32 24a8 8 0 1 0 8 8 8.009 8.009 0 0 0 -8-8zm0 14a6 6 0 1 1 6-6 6.006 6.006 0 0 1 -6 6z"/><path d="m52 20a8 8 0 1 0 -8-8 8.009 8.009 0 0 0 8 8zm0-14a6 6 0 1 1 -6 6 6.006 6.006 0 0 1 6-6z"/></g><path d="m32 44a8 8 0 1 0 8 8 8.009 8.009 0 0 0 -8-8zm0 14a6 6 0 1 1 6-6 6.006 6.006 0 0 1 -6 6z" fill="url(#linear-gradient-4)"/><path d="m24.293 19.707a1 1 0 0 0 1.414 0l6.293-6.293 6.293 6.293a1 1 0 0 0 1.414-1.414l-6.293-6.293 6.293-6.293a1 1 0 1 0 -1.414-1.414l-6.293 6.293-6.293-6.293a1 1 0 0 0 -1.414 1.414l6.293 6.293-6.293 6.293a1 1 0 0 0 0 1.414z" fill="url(#linear-gradient-5)"/><path d="m13.414 12 6.293-6.293a1 1 0 1 0 -1.414-1.414l-6.293 6.293-6.293-6.293a1 1 0 0 0 -1.414 1.414l6.293 6.293-6.293 6.293a1 1 0 1 0 1.414 1.414l6.293-6.293 6.293 6.293a1 1 0 0 0 1.414-1.414z" fill="url(#linear-gradient-6)"/><path d="m13.414 32 6.293-6.293a1 1 0 0 0 -1.414-1.414l-6.293 6.293-6.293-6.293a1 1 0 0 0 -1.414 1.414l6.293 6.293-6.293 6.293a1 1 0 1 0 1.414 1.414l6.293-6.293 6.293 6.293a1 1 0 0 0 1.414-1.414z" fill="url(#linear-gradient-5)"/><path d="m59.707 44.293a1 1 0 0 0 -1.414 0l-6.293 6.293-3.293-3.293a1 1 0 0 0 -1.414 1.414l3.293 3.293-6.293 6.293a1 1 0 1 0 1.414 1.414l6.293-6.293 6.293 6.293a1 1 0 0 0 1.414-1.414l-6.293-6.293 6.293-6.293a1 1 0 0 0 0-1.414z" fill="url(#linear-gradient-8)"/><path d="m45.293 46.707a1 1 0 0 0 1.414-1.414l-1-1a1 1 0 0 0 -1.414 1.414z" fill="url(#linear-gradient-9)"/></g></svg>